<mxfile host="65bd71144e">
    <diagram id="EgnVAjx8yMLYbG9BIhJ_" name="Page-1">
        <mxGraphModel dx="673" dy="425" grid="1" gridSize="10" guides="1" tooltips="1" connect="1" arrows="1" fold="1" page="1" pageScale="1" pageWidth="827" pageHeight="1169" math="0" shadow="0">
            <root>
                <mxCell id="0"/>
                <mxCell id="1" parent="0"/>
                <mxCell id="0H2J8fwH8ns-WpwbMbJJ-8" style="edgeStyle=orthogonalEdgeStyle;rounded=0;orthogonalLoop=1;jettySize=auto;html=1;exitX=0.5;exitY=1;exitDx=0;exitDy=0;entryX=0.5;entryY=0;entryDx=0;entryDy=0;strokeWidth=3;" parent="1" source="0H2J8fwH8ns-WpwbMbJJ-1" target="0H2J8fwH8ns-WpwbMbJJ-2" edge="1">
                    <mxGeometry relative="1" as="geometry"/>
                </mxCell>
                <mxCell id="0H2J8fwH8ns-WpwbMbJJ-1" value="user" style="rounded=1;whiteSpace=wrap;html=1;" parent="1" vertex="1">
                    <mxGeometry x="294" y="40" width="120" height="60" as="geometry"/>
                </mxCell>
                <mxCell id="0H2J8fwH8ns-WpwbMbJJ-9" style="edgeStyle=orthogonalEdgeStyle;rounded=0;orthogonalLoop=1;jettySize=auto;html=1;exitX=0.5;exitY=1;exitDx=0;exitDy=0;entryX=0.5;entryY=0;entryDx=0;entryDy=0;strokeWidth=3;" parent="1" source="0H2J8fwH8ns-WpwbMbJJ-2" target="0H2J8fwH8ns-WpwbMbJJ-5" edge="1">
                    <mxGeometry relative="1" as="geometry"/>
                </mxCell>
                <mxCell id="0H2J8fwH8ns-WpwbMbJJ-12" style="edgeStyle=orthogonalEdgeStyle;rounded=0;orthogonalLoop=1;jettySize=auto;html=1;exitX=0.5;exitY=1;exitDx=0;exitDy=0;strokeWidth=3;" parent="1" source="0H2J8fwH8ns-WpwbMbJJ-2" target="0H2J8fwH8ns-WpwbMbJJ-6" edge="1">
                    <mxGeometry relative="1" as="geometry"/>
                </mxCell>
                <mxCell id="0H2J8fwH8ns-WpwbMbJJ-13" style="edgeStyle=orthogonalEdgeStyle;rounded=0;orthogonalLoop=1;jettySize=auto;html=1;exitX=0.5;exitY=1;exitDx=0;exitDy=0;entryX=0.5;entryY=0;entryDx=0;entryDy=0;strokeWidth=3;" parent="1" source="0H2J8fwH8ns-WpwbMbJJ-2" target="0H2J8fwH8ns-WpwbMbJJ-4" edge="1">
                    <mxGeometry relative="1" as="geometry"/>
                </mxCell>
                <mxCell id="0H2J8fwH8ns-WpwbMbJJ-2" value="router" style="rounded=1;whiteSpace=wrap;html=1;" parent="1" vertex="1">
                    <mxGeometry x="294" y="160" width="120" height="60" as="geometry"/>
                </mxCell>
                <mxCell id="0H2J8fwH8ns-WpwbMbJJ-3" value="auth" style="rounded=1;whiteSpace=wrap;html=1;" parent="1" vertex="1">
                    <mxGeometry x="550" y="160" width="120" height="60" as="geometry"/>
                </mxCell>
                <mxCell id="0H2J8fwH8ns-WpwbMbJJ-4" value="serviceTwo" style="rounded=1;whiteSpace=wrap;html=1;" parent="1" vertex="1">
                    <mxGeometry x="294" y="320" width="120" height="60" as="geometry"/>
                </mxCell>
                <mxCell id="0H2J8fwH8ns-WpwbMbJJ-5" value="serviceOne" style="rounded=1;whiteSpace=wrap;html=1;" parent="1" vertex="1">
                    <mxGeometry x="110" y="320" width="120" height="60" as="geometry"/>
                </mxCell>
                <mxCell id="0H2J8fwH8ns-WpwbMbJJ-6" value="serviceThree" style="rounded=1;whiteSpace=wrap;html=1;" parent="1" vertex="1">
                    <mxGeometry x="480" y="320" width="120" height="60" as="geometry"/>
                </mxCell>
                <mxCell id="0H2J8fwH8ns-WpwbMbJJ-7" value="" style="endArrow=classic;startArrow=classic;html=1;rounded=0;entryX=0;entryY=0.5;entryDx=0;entryDy=0;exitX=1;exitY=0.5;exitDx=0;exitDy=0;strokeWidth=3;" parent="1" source="0H2J8fwH8ns-WpwbMbJJ-2" target="0H2J8fwH8ns-WpwbMbJJ-3" edge="1">
                    <mxGeometry width="50" height="50" relative="1" as="geometry">
                        <mxPoint x="390" y="330" as="sourcePoint"/>
                        <mxPoint x="440" y="280" as="targetPoint"/>
                    </mxGeometry>
                </mxCell>
            </root>
        </mxGraphModel>
    </diagram>
</mxfile>